<svg width="38" height="44" viewBox="0 0 38 44" fill="none" xmlns="http://www.w3.org/2000/svg">
<path d="M27.4204 14.4331L30.5667 18.0709C31.2796 18.8953 32.6098 18.1463 32.2746 17.1092L27.3641 1.91736C27.1098 1.13064 26.0649 0.974831 25.5921 1.65314L5.27374 30.8059C4.58955 31.7876 5.89424 32.9243 6.77293 32.112L25.9853 14.3529C26.4004 13.9692 27.0507 14.0056 27.4204 14.4331Z" fill="#3455FF"/>
<path d="M20.1942 26.4804L21.9619 22.7273C22.4349 21.7232 21.1641 20.811 20.3641 21.5804L12.4608 29.1809C11.8743 29.7449 12.1711 30.7359 12.971 30.8848L29.4975 33.9611C30.6596 34.1774 31.1694 32.5533 30.0922 32.0666L20.6871 27.8178C20.1782 27.5879 19.9562 26.9857 20.1942 26.4804Z" fill="#3455FF"/>
</svg>
