<svg width="218" height="44" viewBox="0 0 218 44" fill="none" xmlns="http://www.w3.org/2000/svg">
<path d="M38.9805 22.1999C38.9805 20.2772 39.4098 18.5599 40.2685 17.0479C41.1458 15.5172 42.3311 14.3319 43.8245 13.4919C45.3365 12.6332 47.0258 12.2039 48.8925 12.2039C51.0765 12.2039 52.9898 12.7639 54.6325 13.8839C56.2751 15.0039 57.4231 16.5532 58.0765 18.5319H53.5685C53.1205 17.5985 52.4858 16.8985 51.6645 16.4319C50.8618 15.9652 49.9285 15.7319 48.8645 15.7319C47.7258 15.7319 46.7085 16.0025 45.8125 16.5439C44.9351 17.0665 44.2445 17.8132 43.7405 18.7839C43.2551 19.7545 43.0125 20.8932 43.0125 22.1999C43.0125 23.4879 43.2551 24.6265 43.7405 25.6159C44.2445 26.5865 44.9351 27.3425 45.8125 27.8839C46.7085 28.4065 47.7258 28.6679 48.8645 28.6679C49.9285 28.6679 50.8618 28.4345 51.6645 27.9679C52.4858 27.4825 53.1205 26.7732 53.5685 25.8399H58.0765C57.4231 27.8372 56.2751 29.3959 54.6325 30.5159C53.0085 31.6172 51.0951 32.1679 48.8925 32.1679C47.0258 32.1679 45.3365 31.7479 43.8245 30.9079C42.3311 30.0492 41.1458 28.8639 40.2685 27.3519C39.4098 25.8399 38.9805 24.1225 38.9805 22.1999Z" fill="#1C1C1C"/>
<path d="M60.4167 24.1879C60.4167 22.6199 60.7247 21.2292 61.3407 20.0159C61.9753 18.8025 62.8247 17.8692 63.8887 17.2159C64.9713 16.5625 66.1753 16.2359 67.5007 16.2359C68.658 16.2359 69.666 16.4692 70.5247 16.9359C71.402 17.4025 72.102 17.9905 72.6247 18.6999V16.4879H76.5727V31.9999H72.6247V29.7319C72.1207 30.4599 71.4207 31.0665 70.5247 31.5519C69.6473 32.0185 68.63 32.2519 67.4727 32.2519C66.166 32.2519 64.9713 31.9159 63.8887 31.2439C62.8247 30.5719 61.9753 29.6292 61.3407 28.4159C60.7247 27.1839 60.4167 25.7745 60.4167 24.1879ZM72.6247 24.2439C72.6247 23.2919 72.438 22.4799 72.0647 21.8079C71.6913 21.1172 71.1873 20.5945 70.5527 20.2399C69.918 19.8665 69.2367 19.6799 68.5087 19.6799C67.7807 19.6799 67.1087 19.8572 66.4927 20.2119C65.8767 20.5665 65.3727 21.0892 64.9807 21.7799C64.6073 22.4519 64.4207 23.2545 64.4207 24.1879C64.4207 25.1212 64.6073 25.9425 64.9807 26.6519C65.3727 27.3425 65.8767 27.8745 66.4927 28.2479C67.1273 28.6212 67.7993 28.8079 68.5087 28.8079C69.2367 28.8079 69.918 28.6305 70.5527 28.2759C71.1873 27.9025 71.6913 27.3799 72.0647 26.7079C72.438 26.0172 72.6247 25.1959 72.6247 24.2439Z" fill="#1C1C1C"/>
<path d="M84.3212 18.7279C84.8252 18.0185 85.5159 17.4305 86.3932 16.9639C87.2892 16.4785 88.3066 16.2359 89.4452 16.2359C90.7706 16.2359 91.9652 16.5625 93.0292 17.2159C94.1119 17.8692 94.9612 18.8025 95.5772 20.0159C96.2119 21.2105 96.5292 22.6012 96.5292 24.1879C96.5292 25.7745 96.2119 27.1839 95.5772 28.4159C94.9612 29.6292 94.1119 30.5719 93.0292 31.2439C91.9652 31.9159 90.7706 32.2519 89.4452 32.2519C88.3066 32.2519 87.2986 32.0185 86.4212 31.5519C85.5626 31.0852 84.8626 30.4972 84.3212 29.7879V39.3919H80.4012V16.4879H84.3212V18.7279ZM92.5252 24.1879C92.5252 23.2545 92.3292 22.4519 91.9372 21.7799C91.5639 21.0892 91.0599 20.5665 90.4252 20.2119C89.8092 19.8572 89.1372 19.6799 88.4092 19.6799C87.6999 19.6799 87.0279 19.8665 86.3932 20.2399C85.7772 20.5945 85.2732 21.1172 84.8812 21.8079C84.5079 22.4985 84.3212 23.3105 84.3212 24.2439C84.3212 25.1772 84.5079 25.9892 84.8812 26.6799C85.2732 27.3705 85.7772 27.9025 86.3932 28.2759C87.0279 28.6305 87.6999 28.8079 88.4092 28.8079C89.1372 28.8079 89.8092 28.6212 90.4252 28.2479C91.0599 27.8745 91.5639 27.3425 91.9372 26.6519C92.3292 25.9612 92.5252 25.1399 92.5252 24.1879Z" fill="#1C1C1C"/>
<path d="M101.366 14.6399C100.675 14.6399 100.096 14.4252 99.6298 13.9959C99.1818 13.5479 98.9578 12.9972 98.9578 12.3439C98.9578 11.6905 99.1818 11.1492 99.6298 10.7199C100.096 10.2719 100.675 10.0479 101.366 10.0479C102.056 10.0479 102.626 10.2719 103.074 10.7199C103.54 11.1492 103.774 11.6905 103.774 12.3439C103.774 12.9972 103.54 13.5479 103.074 13.9959C102.626 14.4252 102.056 14.6399 101.366 14.6399ZM103.298 16.4879V31.9999H99.3778V16.4879H103.298Z" fill="#1C1C1C"/>
<path d="M111.735 19.7079V27.2119C111.735 27.7345 111.856 28.1172 112.099 28.3599C112.36 28.5839 112.789 28.6959 113.387 28.6959H115.207V31.9999H112.743C109.439 31.9999 107.787 30.3945 107.787 27.1839V19.7079H105.939V16.4879H107.787V12.6519H111.735V16.4879H115.207V19.7079H111.735Z" fill="#1C1C1C"/>
<path d="M121.946 18.8959C122.45 18.0745 123.104 17.4305 123.906 16.9639C124.728 16.4972 125.661 16.2639 126.706 16.2639V20.3799H125.67C124.438 20.3799 123.505 20.6692 122.87 21.2479C122.254 21.8265 121.946 22.8345 121.946 24.2719V31.9999H118.026V16.4879H121.946V18.8959Z" fill="#1C1C1C"/>
<path d="M128.339 24.1879C128.339 22.6199 128.647 21.2292 129.263 20.0159C129.897 18.8025 130.747 17.8692 131.811 17.2159C132.893 16.5625 134.097 16.2359 135.423 16.2359C136.58 16.2359 137.588 16.4692 138.447 16.9359C139.324 17.4025 140.024 17.9905 140.547 18.6999V16.4879H144.495V31.9999H140.547V29.7319C140.043 30.4599 139.343 31.0665 138.447 31.5519C137.569 32.0185 136.552 32.2519 135.395 32.2519C134.088 32.2519 132.893 31.9159 131.811 31.2439C130.747 30.5719 129.897 29.6292 129.263 28.4159C128.647 27.1839 128.339 25.7745 128.339 24.1879ZM140.547 24.2439C140.547 23.2919 140.36 22.4799 139.987 21.8079C139.613 21.1172 139.109 20.5945 138.475 20.2399C137.84 19.8665 137.159 19.6799 136.431 19.6799C135.703 19.6799 135.031 19.8572 134.415 20.2119C133.799 20.5665 133.295 21.0892 132.903 21.7799C132.529 22.4519 132.343 23.2545 132.343 24.1879C132.343 25.1212 132.529 25.9425 132.903 26.6519C133.295 27.3425 133.799 27.8745 134.415 28.2479C135.049 28.6212 135.721 28.8079 136.431 28.8079C137.159 28.8079 137.84 28.6305 138.475 28.2759C139.109 27.9025 139.613 27.3799 139.987 26.7079C140.36 26.0172 140.547 25.1959 140.547 24.2439Z" fill="#1C1C1C"/>
<path d="M156.919 16.2639C158.767 16.2639 160.26 16.8519 161.399 18.0279C162.538 19.1852 163.107 20.8092 163.107 22.8999V31.9999H159.187V23.4319C159.187 22.1999 158.879 21.2572 158.263 20.6039C157.647 19.9319 156.807 19.5959 155.743 19.5959C154.66 19.5959 153.802 19.9319 153.167 20.6039C152.551 21.2572 152.243 22.1999 152.243 23.4319V31.9999H148.323V16.4879H152.243V18.4199C152.766 17.7479 153.428 17.2252 154.231 16.8519C155.052 16.4599 155.948 16.2639 156.919 16.2639Z" fill="#1C1C1C"/>
<path d="M172.771 32.2519C171.501 32.2519 170.363 32.0279 169.355 31.5799C168.347 31.1132 167.544 30.4879 166.947 29.7039C166.368 28.9199 166.051 28.0519 165.995 27.0999H169.943C170.017 27.6972 170.307 28.1919 170.811 28.5839C171.333 28.9759 171.977 29.1719 172.743 29.1719C173.489 29.1719 174.068 29.0225 174.479 28.7239C174.908 28.4252 175.123 28.0425 175.123 27.5759C175.123 27.0719 174.861 26.6985 174.339 26.4559C173.835 26.1945 173.023 25.9145 171.903 25.6159C170.745 25.3359 169.793 25.0465 169.047 24.7479C168.319 24.4492 167.684 23.9919 167.143 23.3759C166.62 22.7599 166.359 21.9292 166.359 20.8839C166.359 20.0252 166.601 19.2412 167.087 18.5319C167.591 17.8225 168.3 17.2625 169.215 16.8519C170.148 16.4412 171.24 16.2359 172.491 16.2359C174.339 16.2359 175.813 16.7025 176.915 17.6359C178.016 18.5505 178.623 19.7919 178.735 21.3599H174.983C174.927 20.7439 174.665 20.2585 174.199 19.9039C173.751 19.5305 173.144 19.3439 172.379 19.3439C171.669 19.3439 171.119 19.4745 170.727 19.7359C170.353 19.9972 170.167 20.3612 170.167 20.8279C170.167 21.3505 170.428 21.7519 170.951 22.0319C171.473 22.2932 172.285 22.5639 173.387 22.8439C174.507 23.1239 175.431 23.4132 176.159 23.7119C176.887 24.0105 177.512 24.4772 178.035 25.1119C178.576 25.7279 178.856 26.5492 178.875 27.5759C178.875 28.4719 178.623 29.2745 178.119 29.9839C177.633 30.6932 176.924 31.2532 175.991 31.6639C175.076 32.0559 174.003 32.2519 172.771 32.2519Z" fill="#1C1C1C"/>
<path d="M189.205 19.7079H186.489V31.9999H182.513V19.7079H180.749V16.4879H182.513V15.7039C182.513 13.7999 183.054 12.3999 184.137 11.5039C185.219 10.6079 186.853 10.1879 189.037 10.2439V13.5479C188.085 13.5292 187.422 13.6879 187.049 14.0239C186.675 14.3599 186.489 14.9665 186.489 15.8439V16.4879H189.205V19.7079Z" fill="#1C1C1C"/>
<path d="M206.165 23.9079C206.165 24.4679 206.128 24.9719 206.053 25.4199H194.713C194.806 26.5399 195.198 27.4172 195.889 28.0519C196.58 28.6865 197.429 29.0039 198.437 29.0039C199.893 29.0039 200.929 28.3785 201.545 27.1279H205.773C205.325 28.6212 204.466 29.8532 203.197 30.8239C201.928 31.7759 200.369 32.2519 198.521 32.2519C197.028 32.2519 195.684 31.9252 194.489 31.2719C193.313 30.5999 192.389 29.6572 191.717 28.4439C191.064 27.2305 190.737 25.8305 190.737 24.2439C190.737 22.6385 191.064 21.2292 191.717 20.0159C192.37 18.8025 193.285 17.8692 194.461 17.2159C195.637 16.5625 196.99 16.2359 198.521 16.2359C199.996 16.2359 201.312 16.5532 202.469 17.1879C203.645 17.8225 204.55 18.7279 205.185 19.9039C205.838 21.0612 206.165 22.3959 206.165 23.9079ZM202.105 22.7879C202.086 21.7799 201.722 20.9772 201.013 20.3799C200.304 19.7639 199.436 19.4559 198.409 19.4559C197.438 19.4559 196.617 19.7545 195.945 20.3519C195.292 20.9305 194.89 21.7425 194.741 22.7879H202.105Z" fill="#1C1C1C"/>
<path d="M212.946 18.8959C213.45 18.0745 214.104 17.4305 214.906 16.9639C215.728 16.4972 216.661 16.2639 217.706 16.2639V20.3799H216.67C215.438 20.3799 214.505 20.6692 213.87 21.2479C213.254 21.8265 212.946 22.8345 212.946 24.2719V31.9999H209.026V16.4879H212.946V18.8959Z" fill="#1C1C1C"/>
<path d="M27.4204 14.4331L30.5667 18.0709C31.2796 18.8953 32.6098 18.1463 32.2746 17.1092L27.3641 1.91736C27.1098 1.13064 26.0649 0.974831 25.5921 1.65314L5.27374 30.8059C4.58955 31.7876 5.89424 32.9243 6.77293 32.112L25.9853 14.3529C26.4004 13.9692 27.0507 14.0056 27.4204 14.4331Z" fill="#3455FF"/>
<path d="M20.1942 26.4804L21.9619 22.7273C22.4349 21.7232 21.1641 20.811 20.3641 21.5804L12.4608 29.1809C11.8743 29.7449 12.1711 30.7359 12.971 30.8848L29.4975 33.9611C30.6596 34.1774 31.1694 32.5533 30.0922 32.0666L20.6871 27.8178C20.1782 27.5879 19.9562 26.9857 20.1942 26.4804Z" fill="#3455FF"/>
</svg>
